<svg width="21" height="21" viewBox="0 0 21 21" fill="none" xmlns="http://www.w3.org/2000/svg">
<path d="M10.1377 0.5C12.8547 0.5 13.1937 0.51 14.2597 0.56C15.3247 0.61 16.0497 0.777 16.6877 1.025C17.3477 1.279 17.9037 1.623 18.4597 2.178C18.9682 2.6779 19.3616 3.28259 19.6127 3.95C19.8597 4.587 20.0277 5.313 20.0777 6.378C20.1247 7.444 20.1377 7.783 20.1377 10.5C20.1377 13.217 20.1277 13.556 20.0777 14.622C20.0277 15.687 19.8597 16.412 19.6127 17.05C19.3624 17.7178 18.9688 18.3226 18.4597 18.822C17.9597 19.3303 17.355 19.7238 16.6877 19.975C16.0507 20.222 15.3247 20.39 14.2597 20.44C13.1937 20.487 12.8547 20.5 10.1377 20.5C7.4207 20.5 7.0817 20.49 6.0157 20.44C4.9507 20.39 4.2257 20.222 3.5877 19.975C2.92002 19.7245 2.31522 19.3309 1.8157 18.822C1.3071 18.3222 0.913627 17.7175 0.662695 17.05C0.414695 16.413 0.247695 15.687 0.197695 14.622C0.150695 13.556 0.137695 13.217 0.137695 10.5C0.137695 7.783 0.147695 7.444 0.197695 6.378C0.247695 5.312 0.414695 4.588 0.662695 3.95C0.912932 3.28218 1.3065 2.67732 1.8157 2.178C2.31537 1.66923 2.92012 1.27573 3.5877 1.025C4.2257 0.777 4.9497 0.61 6.0157 0.56C7.0817 0.513 7.4207 0.5 10.1377 0.5ZM10.1377 5.5C8.81161 5.5 7.53984 6.02678 6.60216 6.96447C5.66448 7.90215 5.1377 9.17392 5.1377 10.5C5.1377 11.8261 5.66448 13.0979 6.60216 14.0355C7.53984 14.9732 8.81161 15.5 10.1377 15.5C11.4638 15.5 12.7355 14.9732 13.6732 14.0355C14.6109 13.0979 15.1377 11.8261 15.1377 10.5C15.1377 9.17392 14.6109 7.90215 13.6732 6.96447C12.7355 6.02678 11.4638 5.5 10.1377 5.5V5.5ZM16.6377 5.25C16.6377 4.91848 16.506 4.60054 16.2716 4.36612C16.0372 4.1317 15.7192 4 15.3877 4C15.0562 4 14.7382 4.1317 14.5038 4.36612C14.2694 4.60054 14.1377 4.91848 14.1377 5.25C14.1377 5.58152 14.2694 5.89946 14.5038 6.13388C14.7382 6.3683 15.0562 6.5 15.3877 6.5C15.7192 6.5 16.0372 6.3683 16.2716 6.13388C16.506 5.89946 16.6377 5.58152 16.6377 5.25ZM10.1377 7.5C10.9333 7.5 11.6964 7.81607 12.259 8.37868C12.8216 8.94129 13.1377 9.70435 13.1377 10.5C13.1377 11.2956 12.8216 12.0587 12.259 12.6213C11.6964 13.1839 10.9333 13.5 10.1377 13.5C9.34205 13.5 8.57898 13.1839 8.01637 12.6213C7.45377 12.0587 7.1377 11.2956 7.1377 10.5C7.1377 9.70435 7.45377 8.94129 8.01637 8.37868C8.57898 7.81607 9.34205 7.5 10.1377 7.5V7.5Z" fill="#250077"/>
</svg>
