<svg width="21" height="21" viewBox="0 0 21 21" fill="none" xmlns="http://www.w3.org/2000/svg">
<path fill-rule="evenodd" clip-rule="evenodd" d="M0.137696 2.17091C0.137696 1.72776 0.313737 1.30276 0.627094 0.9894C0.94045 0.676044 1.36545 0.500002 1.8086 0.500002H18.465C18.6846 0.499644 18.9021 0.542605 19.1051 0.626426C19.3081 0.710248 19.4925 0.833284 19.6479 0.98849C19.8033 1.1437 19.9265 1.32802 20.0106 1.53092C20.0946 1.73382 20.1378 1.9513 20.1377 2.17091V18.8273C20.1379 19.0469 20.0949 19.2645 20.0109 19.4675C19.927 19.6705 19.8039 19.8549 19.6486 20.0103C19.4933 20.1656 19.309 20.2889 19.106 20.3729C18.9031 20.4569 18.6855 20.5001 18.4659 20.5H1.8086C1.5891 20.5 1.37175 20.4568 1.16897 20.3727C0.966182 20.2887 0.781942 20.1655 0.626772 20.0103C0.471602 19.855 0.348543 19.6707 0.264625 19.4679C0.180707 19.2651 0.137576 19.0477 0.137696 18.8282V2.17091ZM8.05406 8.12546H10.7622V9.48546C11.1532 8.70364 12.1531 8 13.6559 8C16.5368 8 17.2195 9.55727 17.2195 12.4145V17.7073H14.3041V13.0655C14.3041 11.4382 13.9132 10.52 12.9204 10.52C11.5432 10.52 10.9704 11.51 10.9704 13.0655V17.7073H8.05406V8.12546ZM3.05406 17.5827H5.97042V8H3.05406V17.5827ZM6.3877 4.87455C6.39319 5.12425 6.34876 5.37254 6.257 5.60483C6.16525 5.83713 6.02802 6.04876 5.85336 6.2273C5.67871 6.40585 5.47015 6.5477 5.23993 6.64455C5.00971 6.7414 4.76246 6.79129 4.5127 6.79129C4.26293 6.79129 4.01569 6.7414 3.78546 6.64455C3.55524 6.5477 3.34668 6.40585 3.17203 6.2273C2.99738 6.04876 2.86014 5.83713 2.76839 5.60483C2.67663 5.37254 2.6322 5.12425 2.6377 4.87455C2.64849 4.38441 2.85077 3.91799 3.20123 3.57517C3.55168 3.23235 4.02244 3.04038 4.5127 3.04038C5.00295 3.04038 5.47371 3.23235 5.82416 3.57517C6.17462 3.91799 6.3769 4.38441 6.3877 4.87455Z" fill="#250077"/>
</svg>
