<svg width="27" height="21" viewBox="0 0 27 21" fill="none" xmlns="http://www.w3.org/2000/svg">
<path d="M25.1814 0.833193C25.0716 0.821878 24.961 0.821878 24.8512 0.833193H2.2956C2.15104 0.83542 2.00743 0.857096 1.86865 0.897637L13.5089 12.4896L25.1814 0.833193Z" fill="#250077"/>
<path d="M26.3735 1.95312L14.6446 13.6337C14.3427 13.9338 13.9344 14.1022 13.5088 14.1022C13.0831 14.1022 12.6748 13.9338 12.3729 13.6337L0.748772 2.04174C0.713037 2.17307 0.69409 2.30841 0.692383 2.44451V18.5556C0.692383 18.9829 0.862124 19.3927 1.16427 19.6949C1.46641 19.997 1.8762 20.1667 2.30349 20.1667H24.859C25.2863 20.1667 25.6961 19.997 25.9983 19.6949C26.3004 19.3927 26.4702 18.9829 26.4702 18.5556V2.44451C26.4637 2.27668 26.4311 2.11088 26.3735 1.95312V1.95312ZM3.4071 18.5556H2.28738V17.4037L8.14377 11.5956L9.2796 12.7315L3.4071 18.5556ZM24.8429 18.5556H23.7152L17.8427 12.7315L18.9785 11.5956L24.8349 17.4037L24.8429 18.5556Z" fill="#250077"/>
</svg>
