<svg width="401" height="43" viewBox="0 0 401 43" fill="none" xmlns="http://www.w3.org/2000/svg">
<path fill-rule="evenodd" clip-rule="evenodd" d="M145.052 15.2275C187.706 10.182 227.746 8.39763 266.387 8.0398C186.731 2.30494 106.497 4.12511 27.199 13.4645C70.7016 16.0123 106.69 16.1053 145.052 15.2275ZM20.1425 41.2466C19.7716 39.9727 20.5692 38.6631 21.9206 38.3124C51.6403 30.6596 79.9757 24.8603 107.183 20.4995C75.0123 20.4852 42.0208 19.5572 2.33854 16.5848C1.04815 16.487 0.0447857 15.497 0.00160316 14.2852C-0.0441196 13.0709 0.893196 12.0213 2.17089 11.8447C98.9532 -1.47138 197.351 -3.56828 294.634 5.59699C295.965 5.72343 296.95 6.78977 296.922 8.0231C316.614 8.16384 336.018 8.55985 355.29 8.95108C369.451 9.23973 384.095 9.53792 398.495 9.72399C399.892 9.74069 401.01 10.8142 401 12.1239C400.99 13.4359 399.857 14.4951 398.46 14.4951C313.444 14.4951 252.579 16.561 203.673 18.2189C182.989 18.9227 163.961 19.5691 145.486 19.9914C107.14 24.5382 66.6831 31.7307 23.2643 42.9165C23.0382 42.9714 22.8122 43 22.5912 43C21.476 43 20.4524 42.3058 20.1425 41.2466Z" fill="url(#paint0_linear)"/>
<defs>
<linearGradient id="paint0_linear" x1="-1.90558e-06" y1="21.0001" x2="401" y2="21" gradientUnits="userSpaceOnUse">
<stop stop-color="#FC5296"/>
<stop offset="0.712689" stop-color="#F67062"/>
</linearGradient>
</defs>
</svg>
